P2
# Generated by OpenCV 3.4.2
64 64
255
   0   0   0   0   0   0   0 217 221 223 223 230 234 235 235 236 237 238 238 239 240 240 241 241 242 242 243 243 243 243 243 243 243 243 243 243 243 243 243 243 243 243 243 243 242 242 241 241 240 240 240 239 236 228 228 225 222   0   0   0   0   0   0   0
   0   0   0  23  72 121 172 198 224 225 226 228 230 231 231 232 233 234 235 236 237 237 238 239 239 240 241 241 241 241 241 241 241 241 241 241 241 241 241 241 241 241 241 241 240 239 239 238 238 237 237 236 234 233 231 230 203 176 124  74  24   0   0   0
   0   0  23  71 144 195 222 224 225 226 227 227 228 229 230 231 232 233 234 235 236 236 237 237 238 239 240 240 241 241 241 241 241 241 241 241 241 241 241 241 241 240 240 240 239 238 237 237 236 236 235 235 234 233 233 232 230 228 200 148  73  24   0   0
   0  23  70 143 194 221 223 224 225 225 226 227 227 228 229 230 231 232 233 234 236 236 237 237 238 239 240 241 241 241 241 241 241 241 241 241 241 241 241 241 241 241 240 239 239 238 237 237 236 236 235 234 233 233 232 231 230 229 227 199 147  72  24   0
   0  45 117 190 219 222 223 224 224 225 225 226 227 227 227 227 228 229 230 231 232 232 233 234 234 235 236 237 237 237 237 237 237 237 237 237 237 237 237 237 237 237 237 236 235 234 234 233 233 233 234 234 233 232 231 231 230 229 228 225 195 120  46   0
   0  91 164 216 220 221 222 223 224 224 224 223 223 224 227 229 231 231 232 233 234 234 235 235 236 237 237 238 238 238 238 238 238 238 238 238 238 238 238 238 238 238 238 237 237 236 235 235 234 232 230 229 229 231 231 230 229 228 228 227 222 169  94   0
   0 111 184 217 220 220 221 222 223 222 222 224 228 229 228 225 224 225 225 226 226 227 227 227 227 228 228 228 228 228 228 228 228 228 228 228 228 228 228 228 228 228 228 228 228 227 227 227 227 230 233 233 229 228 228 229 228 228 227 226 223 190 114   0
   0 130 202 219 219 220 220 221 220 221 224 225 221 213 210 209 210 210 211 211 211 211 211 211 211 211 211 211 211 211 211 211 211 211 211 211 211 211 211 211 211 211 211 211 211 211 210 210 210 211 215 223 228 229 227 226 227 227 226 226 226 209 134   0
   0 134 197 218 218 219 220 218 219 223 223 218 208 200 195 193 193 193 194 194 194 194 194 194 195 195 195 195 194 194 194 194 194 194 194 194 194 194 194 194 194 194 194 194 194 193 193 192 193 195 200 208 219 226 228 225 225 226 225 225 225 204 140   0
  85 140 197 217 217 218 218 217 222 222 216 201 188 182 183 186 187 188 188 189 189 190 188 179 167 155 150 154 168 181 189 189 189 189 189 189 189 189 190 190 190 190 189 189 189 188 188 187 186 183 182 188 201 218 225 226 223 225 225 224 225 203 146  98
  51 145 198 216 216 217 215 219 222 217 200 185 183 189 192 194 195 196 196 197 196 183 162 136 118 108 104 108 120 147 175 193 197 197 197 197 193 183 170 162 167 180 191 197 197 196 196 195 194 192 189 183 185 201 218 226 224 222 224 223 224 205 152  60
  32 138 198 216 215 216 213 223 219 207 187 183 190 195 198 199 200 200 200 198 178 147 114  95  87  82  79  79  83 101 138 175 198 201 200 186 163 135 118 111 115 129 155 181 197 200 200 200 199 198 195 190 183 187 208 221 227 220 223 222 223 204 144  39
  15 134 198 215 214 215 213 224 212 202 182 188 195 198 200 201 202 202 202 181 144 101  79  79  86  95  97  91  79  74  96 143 184 201 182 150 115  93  84  81  83  89 106 138 173 196 202 202 201 200 198 195 188 182 202 213 228 219 222 221 222 204 139  20
  15 131 198 214 214 214 214 224 209 198 182 191 197 200 201 202 202 202 194 155 106  76  85 107 122 129 131 124 111  86  78 111 160 179 147 104  80  78  86  91  88  79  76  92 132 172 198 202 202 201 200 197 191 182 198 210 227 220 220 220 221 203 136  20
  15 131 197 214 214 213 215 222 209 198 184 193 198 201 202 202 202 203 182 127  88  81 112 130 138 141 141 136 128 110  83  95 122 137 106  80  85 105 119 125 123 111  91  76  90 136 180 202 202 202 201 198 193 184 198 210 225 220 219 219 220 202 136  20
  15 131 197 213 213 212 215 222 210 199 185 194 199 201 202 202 202 203 168 115  84  94 126 138 146 151 150 144 135 123  97  89  88  89  84  87 110 127 136 140 140 134 119  91  75 104 154 195 202 202 201 199 194 185 199 211 225 220 218 218 219 201 135  20
  15 130 196 212 212 211 214 221 210 199 186 195 199 202 202 202 202 203 162 112  84 100 131 141 151 156 155 149 139 127 108  86  67  66  83 105 125 138 148 154 153 146 135 113  79  87 128 184 203 202 202 199 195 186 199 211 224 219 217 217 218 200 135  20
  15 130 195 212 211 210 213 221 210 199 186 195 199 202 202 202 202 203 166 115  86  99 130 141 150 155 155 148 138 127 113  83  65  66  92 116 131 145 157 164 163 155 142 126  89  82 115 171 203 202 202 199 195 186 199 211 224 218 216 216 217 199 134  19
  15 129 194 211 211 210 213 221 210 200 186 195 199 202 202 202 203 203 177 122  91  92 125 136 144 149 148 143 134 123 110  80  71  75 101 118 133 147 160 167 166 157 144 129  91  82 113 169 203 202 202 199 195 186 200 211 223 217 214 215 215 198 133  19
  15 129 194 211 210 209 212 221 210 200 186 195 200 202 198 191 182 181 173 127  97  85 114 129 135 139 138 128 113  96  82  62  59  65  90 109 128 144 155 162 161 153 141 123  86  87 121 178 203 202 202 199 195 186 200 211 223 216 213 214 214 197 132  19
  15 127 192 209 209 209 212 220 210 200 186 195 191 176 152 134 126 126 129 101  79  73  99 119 125 124 114 100  92  94  98  96  93  88  85  90 108 131 145 150 150 143 133 109  81  97 140 191 202 202 202 199 195 186 200 210 223 215 213 213 213 196 131  19
  14 126 190 207 208 207 211 220 210 200 187 183 159 127 106  99 100 103 110 100  82  71  84 105 110 100  93  94 107 120 130 136 134 125 111  95  94 107 126 136 135 131 118  92  85 118 168 200 202 202 202 199 195 186 200 210 222 215 212 212 211 194 130  19
  14 126 189 205 205 205 210 220 210 200 180 157 118  86  81  91 101 107 107 104  91  78  76  84  87  87  94 120 148 172 188 195 192 180 157 128 100  92 101 117 121 114  98  89 110 154 191 203 202 202 202 199 195 186 200 210 221 213 210 210 209 192 129  19
  14 125 189 205 204 203 208 218 209 201 164 123  86  81 108 131 143 148 146 140 126 102  82  70  73  92 128 168 193 203 205 207 206 203 196 175 137  99  88  94 101  89  75  78 107 140 164 175 189 199 202 199 195 186 200 209 220 211 207 208 208 191 129  18
  14 125 189 204 204 202 206 217 208 196 141 102  80 106 139 153 159 161 158 150 141 123  96  71  80 121 169 197 207 213 217 219 218 214 208 200 175 128  90  72  73  65  63  80 101 116 117 122 136 162 185 198 195 185 198 208 219 209 206 207 207 191 128  18
  14 125 189 205 204 202 206 216 207 189 120  90  82 123 152 164 172 175 171 161 148 137 105  86 102 150 193 207 215 223 229 231 230 225 217 209 197 159 109  74  68  79  87  95 100  99  98  99 100 114 146 176 192 183 196 207 217 208 205 206 207 190 128  18
  14 125 189 205 204 202 206 216 206 181 108  84  84 130 154 169 180 184 179 167 153 139 103  99 122 174 203 213 223 232 239 241 240 234 226 215 205 183 126  89  76 105 119 126 129 128 122 109  92  80 100 141 176 181 195 206 217 207 204 205 206 190 127  18
  14 125 189 205 204 202 206 216 206 178 104  81  82 129 151 167 179 183 178 166 152 136  96 106 131 189 205 217 229 239 246 249 247 241 231 220 208 196 140 110  97 133 149 152 156 157 155 146 127  89  74 105 153 180 195 206 216 207 203 205 206 189 127  18
  14 125 189 204 204 202 206 216 206 182 107  81  78 122 145 159 169 173 168 158 145 128  87 104 133 194 206 218 231 241 249 252 250 243 233 222 209 199 143 112  95 132 151 158 163 165 163 157 147 115  76  89 129 175 195 206 216 206 202 204 205 189 127  18
  14 125 189 205 204 202 206 216 206 189 118  83  70 108 137 147 155 157 154 145 135 122  82  99 127 190 204 216 229 239 247 250 248 241 231 219 207 196 137 107  93 134 154 163 171 174 171 164 155 132  84  87 116 168 195 205 216 206 202 204 205 189 127  18
  14 126 189 205 204 203 207 217 206 194 139  94  65  83 118 134 141 142 139 133 126 117  81  88 115 176 199 211 223 233 240 243 241 235 226 214 202 185 124  99  93 139 156 168 177 182 179 170 159 139  90  87 111 163 195 205 216 206 202 204 204 189 127  18
  15 126 190 206 205 204 207 217 206 196 161 125  82  65  80  99 112 117 117 112 103  93  65  64  98 155 194 204 214 223 229 232 231 225 217 206 197 164 110  91 103 144 156 168 178 183 180 171 160 139  89  87 112 164 195 205 216 206 202 204 205 189 127  18
  15 127 190 206 206 205 208 217 206 195 177 160 126  91  77  75  75  76  76  75  74  72  64  55  79 127 176 197 204 212 217 219 218 214 207 199 181 134  95  90 118 144 153 164 173 177 174 166 157 129  82  86 120 171 195 205 216 206 202 204 205 189 127  18
  15 127 191 207 207 205 209 218 206 195 181 185 169 140 112  79  61  52  63  69  70  70  70  61  67  93 141 178 195 200 204 206 205 202 197 181 147  92  75  89 126 140 147 156 163 166 164 158 146 110  74  91 136 177 195 205 216 206 202 204 204 189 127  18
  15 127 191 208 207 206 209 218 206 195 180 190 194 188 153  95  57  51  71  82  90  98 101  92  75  72  93 131 162 182 192 195 194 187 168 137  95  56  56  77 112 126 140 148 152 155 153 142 119  80  72 109 160 181 195 206 216 206 202 204 205 188 126  17
  15 128 192 208 208 207 210 218 206 195 180 190 195 194 155 101  69  80 108 121 128 128 123 113  93  74  70  84 106 123 136 141 139 128 110  85  61  41  44  71  97 110 107 112 118 118 111  96  77  70  98 143 178 180 194 205 216 206 202 203 203 182 119  15
  15 128 193 210 209 208 211 219 206 195 180 190 196 182 124  80  67 101 125 138 145 146 140 129 113  91  71  57  61  72  86  92  91  84  71  58  53  50  45  62  92 120 118 107  97  91  87  84  83 100 138 174 190 182 193 202 212 205 200 196 190 163 105  15
  15 129 194 211 210 209 212 220 206 195 180 190 196 168 107  71  75 116 136 151 161 163 155 140 123 105  87  58  41  35  47  53  54  55  58  65  69  67  52  63  96 133 141 127 117 109 102 107 126 162 188 200 196 188 194 203 213 207 194 178 165 139  90  14
  15 129 195 211 211 210 212 220 207 195 180 190 196 161 100  68  80 123 142 159 170 172 163 146 128 109  87  59  46  45  58  63  70  77  83  84  82  77  63  53  92 145 186 175 158 151 157 176 198 210 212 206 199 194 199 208 213 201 177 153 139 125  85  13
  15 130 196 212 212 211 214 221 207 195 180 190 196 167 106  69  76 118 141 158 169 170 161 145 127 106  77  49  42  51  68  76  84  91  94  95  92  86  74  51  80 127 186 192 189 195 207 220 226 225 218 208 201 201 209 214 206 183 154 133 130 129  92  13
  15 131 197 213 213 212 214 221 207 195 180 190 196 180 123  76  66 103 133 149 158 159 151 138 119  92  67  43  45  53  72  81  91  99 104 104 100  93  82  56  72 114 170 186 190 205 226 233 231 219 208 201 201 209 214 206 183 153 133 129 141 145 104  15
  15 131 197 214 214 213 215 222 207 194 180 190 195 192 153  98  64  77 111 132 141 142 136 123 100  73  72  57  62  52  73  84  94 104 110 110 106  97  87  59  68 106 157 186 201 226 236 231 219 208 201 201 209 214 206 183 153 132 128 140 158 161 114  17
  15 132 198 215 215 214 216 222 207 194 179 189 194 198 180 137  86  65  76  99 115 119 111  92  72  70 103  99  84  54  69  85  95 104 110 111 106  98  85  57  68 101 157 194 219 235 231 219 208 201 201 209 214 207 183 153 132 127 139 157 176 174 122  18
  16 132 199 216 216 215 217 223 206 193 178 188 194 197 196 174 134  91  68  66  72  75  70  66  73 105 150 149 107  61  58  79  92 100 106 106 102  94  76  51  71 106 169 204 229 231 219 208 201 201 209 214 207 183 153 131 127 138 157 175 190 186 129  19
  16 133 200 217 217 216 217 224 206 194 175 186 192 196 197 195 176 142 107  86  79  78  81  92 117 154 184 183 130  78  50  66  83  93  98  98  92  78  57  53  85 127 183 209 229 219 208 201 201 209 214 207 184 154 131 127 138 156 174 189 203 196 135  19
  16 134 201 218 218 218 216 226 210 197 176 182 190 194 196 197 197 184 162 135 119 114 121 142 169 189 198 195 162 109  61  49  60  71  75  72  64  54  56  81 117 151 188 209 220 208 201 201 208 214 208 184 154 131 126 138 156 174 189 202 214 204 140  20
  16 134 202 219 219 219 217 224 218 203 182 177 185 190 193 194 195 196 195 188 179 174 181 190 196 196 196 196 184 150 104  67  52  48  49  54  61  73  96 129 145 166 183 206 209 201 201 208 214 208 184 154 131 126 137 156 174 189 201 212 222 209 142  20
  15 134 202 220 220 221 219 221 223 215 196 179 178 183 187 189 190 191 191 192 192 192 192 192 191 191 191 191 192 178 150 115  92  83  83  88  99 118 147 165 160 163 176 199 201 201 208 214 208 185 154 131 125 137 155 174 188 201 212 221 227 212 143  20
  14 132 201 221 221 222 222 220 224 221 214 196 182 176 177 180 182 182 183 183 183 183 183 183 183 183 183 183 183 184 177 161 141 129 128 135 150 167 178 175 153 154 167 193 201 208 214 208 185 154 131 125 136 155 173 188 201 212 220 226 230 211 141  18
  11 126 196 222 222 223 224 222 222 225 223 216 204 196 190 187 187 188 188 188 188 188 188 188 188 188 188 188 188 188 189 189 190 190 190 190 190 189 188 179 157 154 165 194 208 214 208 185 155 131 125 136 155 173 188 201 212 220 226 229 231 206 135  16
   8 114 185 224 223 224 224 225 223 224 226 226 220 211 207 206 206 207 207 207 207 207 207 207 207 207 207 207 207 207 207 207 207 207 207 207 207 207 206 197 173 164 174 202 214 208 186 155 131 125 136 154 173 187 200 211 220 226 229 230 232 194 122  14
   7  96 168 219 224 224 225 226 227 225 225 226 230 231 228 225 224 225 225 225 225 226 226 226 226 226 226 226 226 226 226 226 226 226 226 226 226 226 225 215 189 177 185 208 209 186 155 131 124 135 154 172 187 200 211 220 226 229 230 230 227 175 102  12
   4  74 146 206 224 225 226 227 228 228 228 227 226 227 230 232 233 234 234 235 235 236 236 237 237 237 237 237 237 237 237 237 237 237 237 237 237 236 235 224 197 185 190 202 186 155 130 124 135 153 172 187 200 211 220 226 229 230 230 230 213 152  79   8
  11  57 119 183 215 226 227 227 228 229 230 230 231 231 231 231 231 232 233 233 234 235 236 236 236 236 236 236 236 236 236 236 236 236 236 236 236 235 233 223 195 184 180 180 156 131 124 134 153 171 187 200 211 220 226 229 230 230 230 222 189 123  59  18
   9  46  93 149 189 214 227 228 229 230 230 231 232 233 234 234 235 236 237 237 238 239 239 240 240 240 240 240 240 240 240 240 240 240 240 240 240 239 237 226 198 181 164 152 131 124 134 153 171 186 199 211 220 226 229 230 230 231 219 197 154  96  47  14
  13  35  72 113 142 176 209 226 230 231 231 232 233 233 234 235 236 236 237 238 238 239 240 240 240 240 240 240 240 240 240 240 240 240 240 240 240 239 237 225 201 174 147 131 124 135 153 172 186 199 210 219 225 228 230 231 228 212 182 150 118  74  35  20
   0  22  56  79 101 124 165 195 214 224 231 233 235 236 237 238 239 239 239 240 241 241 242 242 242 242 242 242 242 242 242 242 242 242 242 242 242 242 239 226 198 162 133 125 136 157 177 191 202 212 221 227 231 232 227 217 198 167 128 107  84  58  22   0
   0   9  34  53  68  86 118 149 161 167 175 183 190 198 205 206 201 196 195 195 196 196 197 197 197 197 197 197 197 197 197 197 197 197 197 197 197 196 194 185 166 139 121 119 135 158 173 178 177 179 183 184 182 176 170 165 151 117  87  72  57  36   9   0
   0   3  16  30  50  69  91 106 109 107 111 119 128 139 148 149 143 136 134 134 135 135 136 136 136 136 136 136 136 136 136 136 136 136 136 136 136 136 134 128 116 102  95  98 111 127 137 137 130 126 125 122 118 113 111 113 107  88  66  51  33  18   4   0
   0   1   4  13  26  54  80  91  75  54  48  55  64  76  85  86  80  73  71  71  72  73  73  74  74  74  74  74  75  75  75  75  74  74  74  74  74  74  73  72  72  73  73  73  76  84  88  84  75  68  63  58  52  47  56  76  90  77  51  26  15   5   2   0
   0   1   2   4  11  29  54  69  66  52  43  43  49  55  59  60  59  58  57  58  59  59  60  60  60  60  61  61  62  62  62  62  61  61  61  61  60  60  60  59  59  58  58  58  58  60  60  59  56  53  49  44  41  42  53  67  69  52  28  11   5   3   2   0
   0   0   1   2   2  10  24  39  41  36  31  34  38  42  43  44  44  45  45  46  46  46  47  47  47  47  48  48  48  48  48  48  48  48  48  47  47  47  47  46  46  46  46  45  45  45  44  44  43  42  39  35  32  31  36  41  39  24  10   3   2   1   0   0
   0   0   0   1   1   1   3   9  15  18  18  20  22  24  25  25  26  26  26  27  27  27  27  27  27  27  27  28  28  28  28  28  28  28  27  27  27  27  27  27  27  27  27  26  26  26  26  25  25  24  23  21  19  18  18  15  10   3   2   1   1   0   0   0
   0   0   0   0   0   0   0   0   0   0   0   0   0   0   0   0   0   0   0   0   0   0   0   0   0   0   0   0   0   0   0   0   0   0   0   0   0   0   0   0   0   0   0   0   0   0   0   0   0   0   0   0   0   0   0   1   0   0   0   0   0   0   0   0
